<svg width="269.053650" height="59.971313" viewBox="0 0 269.054 59.9713" fill="none" xmlns="http://www.w3.org/2000/svg" xmlns:xlink="http://www.w3.org/1999/xlink">
	<desc>
			Created with Pixso.
	</desc>
	<defs>
		<linearGradient x1="9.242999" y1="29.994568" x2="210.416428" y2="29.994568" id="paint_linear_1_13_0" gradientUnits="userSpaceOnUse">
			<stop stop-color="#B8005F"/>
			<stop offset="1.000000" stop-color="#00FFFF"/>
		</linearGradient>
	</defs>
	<path id="Vector" d="M97.53 15.65L99.97 2.09C100.18 1 99.3 0 98.2 0L52.46 0L18.35 0C17.71 0 17.1 0.34 16.78 0.88L0.24 29.11C-0.09 29.65 -0.09 30.34 0.24 30.88L16.78 59.08C17.1 59.62 17.71 59.97 18.35 59.97L41.74 59.97L52.46 59.97L88.58 59.97C89.46 59.97 90.21 59.34 90.36 58.47L92.81 44.74C93.01 43.65 92.14 42.64 91.03 42.64L70.15 42.64C69.01 42.64 68.16 41.64 68.37 40.52L68.66 38.97C68.81 38.11 69.56 37.51 70.44 37.51L88.64 37.51C89.52 37.51 90.27 36.88 90.45 36.02L92.52 24.34C92.72 23.26 91.85 22.25 90.71 22.25L73.79 22.25C72.65 22.25 71.81 21.25 71.98 20.16L72.24 18.61C72.39 17.75 73.15 17.12 74.05 17.12L95.69 17.12C96.62 17.15 97.38 16.52 97.53 15.65ZM22.34 49.64L11.36 30.88C11.04 30.34 11.04 29.65 11.36 29.11L22.34 10.35C22.66 9.8 23.28 9.46 23.92 9.46L45.91 9.46C46.55 9.46 47.16 9.8 47.48 10.35L58.46 29.11C58.78 29.65 58.78 30.34 58.46 30.88L47.48 49.64C47.16 50.19 46.55 50.53 45.91 50.53L23.92 50.53C23.25 50.53 22.66 50.19 22.34 49.64Z" fill="url(#paint_linear_1_13_0)" fill-opacity="1.000000" fill-rule="nonzero"/>
	<path id="EVARUGS" d="M239.99 39.46Q242.75 38.54 244.19 36.85L245.85 26.32L235.67 26.32L234.93 30.56L239.1 30.56L238.3 34.55Q237.94 34.78 237.56 34.97Q236.21 35.61 234.54 35.58Q233.11 35.56 232.21 34.86Q230.89 33.82 230.73 31.29Q230.59 29.54 231.08 26.37Q231.66 22.66 233.24 20.67Q234.13 19.55 235.27 19.09Q236.18 18.72 237.25 18.76Q238.66 18.81 239.51 19.52Q239.65 19.63 239.77 19.76Q240.66 20.71 240.78 22.77L246.55 22.79Q246.29 18.7 244.13 16.48Q244.06 16.41 243.98 16.33Q243.91 16.27 243.85 16.21Q241.55 14.1 237.39 14.03Q234.86 13.99 232.73 14.89Q230.74 15.74 229.1 17.42Q229.08 17.45 229.06 17.47Q225.71 20.95 224.91 26.86L224.77 27.92Q224.33 31.47 225.28 34.3Q225.98 36.39 227.37 37.8Q227.86 38.3 228.44 38.71Q228.59 38.82 228.75 38.92Q230.87 40.3 233.87 40.33Q237.23 40.38 239.99 39.46ZM260.97 31.92Q261.14 32.45 261.01 33.07Q260.89 33.73 260.55 34.23Q260.25 34.67 259.78 34.99Q258.76 35.69 257.25 35.69Q255.22 35.69 254.36 34.68L254.35 34.68Q253.49 33.67 253.6 31.7L247.57 31.68Q247.5 34.18 248.55 36.06Q249.12 37.08 250.03 37.92Q250.07 37.96 250.11 37.99Q251.35 39.12 253.07 39.71Q254.85 40.33 256.92 40.36Q259.75 40.4 262.03 39.49Q264.3 38.57 265.59 36.9Q266.03 36.32 266.34 35.68Q266.92 34.46 267.01 33.02Q267.11 31.41 266.57 30.04Q265.69 27.8 263.07 26.23Q261.74 25.42 258.79 24.3Q256.43 23.4 256.18 22.09Q256.12 21.76 256.18 21.41Q256.26 20.95 256.47 20.55Q256.83 19.89 257.55 19.43Q257.81 19.26 258.09 19.13Q259.05 18.7 260.22 18.73Q261.6 18.76 262.28 19.46Q262.37 19.55 262.45 19.65Q263.12 20.54 263.07 22.01L269.05 22.01Q269.07 19.49 267.95 17.69Q267.47 16.91 266.77 16.26Q266.41 15.93 266.01 15.65Q263.87 14.11 260.66 14.05Q257.83 14.01 255.44 14.95Q253.05 15.88 251.7 17.56Q251.01 18.41 250.64 19.39Q250.28 20.33 250.22 21.38Q250.15 22.56 250.47 23.61Q251.45 26.76 255.99 28.8L258.87 29.99Q260.61 30.74 260.97 31.92ZM118.95 29.15L128.35 29.15L129.14 24.56L119.72 24.56L120.67 19.16L131.82 19.16L132.64 14.4L115.47 14.4L111.04 40L128.18 40L129 35.25L117.88 35.25L118.95 29.15ZM149.45 14.4L141.61 32.96L139.6 14.4L133.1 14.4L137.39 40L143.96 40L156.34 14.4L149.45 14.4ZM159.54 35.21L167.71 35.21L168.33 40L174.58 40L169.86 14.4L164.2 14.4L150.64 40L157.27 40L159.54 35.21ZM184.23 30.96L187.57 30.96L190.39 40L196.8 40L196.8 39.7L193.36 29.47Q195.89 28.41 197.29 26.59Q198.7 24.77 198.89 22Q199.06 19.69 198.1 18.02Q197.6 17.15 196.79 16.45Q194.45 14.42 190.11 14.42L181.07 14.4L176.64 40L182.65 40L184.23 30.96ZM220.76 31.1L223.61 14.4L217.6 14.4L214.75 31.12Q214.27 33.92 212.65 34.97Q211.61 35.65 210.09 35.6Q208.82 35.55 208.1 34.89Q208.06 34.86 208.03 34.83Q207.98 34.78 207.93 34.73Q207.29 34.02 207.21 32.81Q207.14 32.01 207.24 31.14L210.07 14.4L204.03 14.4L201.18 31.12Q200.87 33.78 201.82 35.86Q201.83 35.88 201.84 35.91Q202.28 36.86 202.95 37.62Q203.75 38.53 204.87 39.16Q206.93 40.31 209.72 40.36Q213.29 40.42 215.89 38.86Q216.57 38.45 217.18 37.94Q217.96 37.28 218.58 36.5Q220.31 34.3 220.76 31.1ZM188.56 26.23L185.04 26.2L186.27 19.16L190.35 19.18Q191.53 19.24 192.17 19.86Q192.69 20.36 192.85 21.24Q192.86 21.33 192.87 21.43Q193 22.48 192.58 23.6Q192.33 24.29 191.88 24.81Q191.53 25.22 191.06 25.53Q190.91 25.63 190.75 25.72Q189.79 26.23 188.56 26.23ZM167.1 30.45L161.79 30.45L165.97 21.63L167.1 30.45Z" fill="#000000" fill-opacity="1.000000" fill-rule="evenodd"/>
</svg>
